<?xml version="1.0" encoding="utf-8"?><svg viewBox="0 0 121 121" xmlns="http://www.w3.org/2000/svg" xmlns:xlink="http://www.w3.org/1999/xlink"><style>:root>svg{display:none}:root>svg:target{display:block}</style><svg fill="none" viewBox="0 0 14 16" id="basket" xmlns="http://www.w3.org/2000/svg"><path d="M12.998 4.455A.5.5 0 0012.5 4H10V3c0-1.655-1.345-3-3-3-1.654 0-3 1.345-3 3v1H1.5a.5.5 0 00-.498.455l-1 11A.5.5 0 00.5 16h13a.498.498 0 00.498-.545l-1-11zM5 3c0-1.103.897-2 2-2 1.102 0 2 .897 2 2v1H5V3zM1.048 15l.908-10H4v1.138A.996.996 0 004.5 8 .996.996 0 005 6.138V5h4v1.138A.995.995 0 008.5 7a1 1 0 002 0 .995.995 0 00-.5-.862V5h2.043l.909 10H1.048z" fill="#333"/></svg><svg fill="none" viewBox="0 0 121 121" id="btn-prev" xmlns="http://www.w3.org/2000/svg"><g filter="url(#bfilter0_d)"><circle cx="60.163" cy="60.875" r="40.042" fill="#fff"/></g><path d="M51.92 60.874l16.71-16.71a1.044 1.044 0 000-1.48 1.044 1.044 0 00-1.48 0L49.695 60.138c-.41.41-.41 1.07 0 1.48L67.15 79.066c.201.202.473.31.736.31.264 0 .535-.1.737-.31a1.044 1.044 0 000-1.48l-16.702-16.71z" fill="#F6919D"/><defs><filter id="bfilter0_d" x=".122" y=".834" width="120.083" height="120.083" filterUnits="userSpaceOnUse" color-interpolation-filters="sRGB"><feFlood flood-opacity="0" result="BackgroundImageFix"/><feColorMatrix in="SourceAlpha" values="0 0 0 0 0 0 0 0 0 0 0 0 0 0 0 0 0 0 127 0"/><feOffset/><feGaussianBlur stdDeviation="10"/><feColorMatrix values="0 0 0 0 0.9869 0 0 0 0 0.784348 0 0 0 0 0.810484 0 0 0 1 0"/><feBlend in2="BackgroundImageFix" result="effect1_dropShadow"/><feBlend in="SourceGraphic" in2="effect1_dropShadow" result="shape"/></filter></defs></svg><svg fill="none" viewBox="0 0 20 16" id="catalog" xmlns="http://www.w3.org/2000/svg"><path d="M17.56 0h-5.485C11.198 0 10.43.312 10 .995 9.57.312 8.803 0 7.926 0H2.44C1.094 0 0 1.075 0 2.398v9.466c0 1.323 1.094 2.398 2.44 2.398h5.486c.84 0 1.565.615 1.688 1.43.026.177.18.308.361.308.009 0 .017-.004.025-.005.008.001.016.005.025.005.181 0 .335-.13.362-.307.123-.816.848-1.431 1.687-1.431h5.486c1.346 0 2.44-1.075 2.44-2.398V2.398C20.001 1.075 18.906 0 17.56 0zM7.926 13.251H2.44c-.625 0-1.44-.521-1.44-1.387V2.398A1.397 1.397 0 012.44.995h5.486C9.024.98 9.473 1.41 9.473 2.398v11.554c-.445-.43-.89-.7-1.547-.7zm11.049-1.387c0 .806-.678 1.387-1.415 1.387h-5.485c-.656 0-1.089.271-1.533.701V2.398c0-1.019.663-1.403 1.533-1.403h5.485c.803 0 1.415.594 1.415 1.403v9.466z" fill="#333"/></svg><svg fill="none" viewBox="0 0 22 20" id="desktop" xmlns="http://www.w3.org/2000/svg"><path d="M15.412 18.798h.102c-1.068-.133-1.638-.56-1.94-.992H8.046c-.302.432-.872.859-1.94.992h.067a.601.601 0 000 1.202h9.239a.601.601 0 000-1.202zM21.62 12.888V1.571A1.57 1.57 0 0020.049 0H1.571A1.57 1.57 0 000 1.571V15.482c.027.74.636 1.332 1.384 1.332h18.847c.748 0 1.353-.592 1.384-1.331l.005-2.595zm-9.555 2.417a.348.348 0 01-.347.347h-1.82a.348.348 0 01-.347-.347v-.24c0-.192.155-.348.347-.348h1.82c.191 0 .347.156.347.348v.24zm7.984-1.865H1.571a.277.277 0 01-.276-.276V1.571c0-.151.125-.276.276-.276h18.474c.15 0 .275.125.275.276v11.593c0 .152-.12.276-.271.276z" fill="#828282"/><path d="M15.318 6.903h.694l.023-.023c0-.213-.018-.431-.05-.645l-.667.668zM13.725 2.96l-2.203 2.202v.695l2.626-2.626a3.98 3.98 0 00-.423-.272zM12.746 2.555l-1.224 1.223v.695l1.736-1.736a3.506 3.506 0 00-.512-.182zM12.176 2.434a4.452 4.452 0 00-.645-.049l-.009.01v.694l.654-.655zM13.244 6.903l2.212-2.212a3.98 3.98 0 00-.271-.423L12.55 6.903h.694zM14.878 3.88a5.846 5.846 0 00-.348-.346l-3.008 3.012v.352h.338l3.018-3.017zM14.628 6.903l1.238-1.238a5.36 5.36 0 00-.178-.511l-1.75 1.749h.69z" fill="#828282"/><path d="M10.734 3.164a4.532 4.532 0 00-4.53 4.53c0 2.502 2.03 4.531 4.53 4.531 2.501 0 4.53-2.03 4.53-4.53h-4.53v-4.53z" fill="#828282"/></svg><svg fill="none" viewBox="0 0 17 16" id="favorite" xmlns="http://www.w3.org/2000/svg"><path d="M8.489 16l-.234-.116c-.252-.124-6.185-3.108-7.912-8.1C-.67 4.857.636 1.54 3.253.39 5.02-.388 7.09.026 8.506 1.39 9.922.03 11.995-.378 13.76.403c2.614 1.157 3.912 4.478 2.894 7.403-1.738 4.988-7.678 7.955-7.93 8.079L8.489 16zM5.136 1.06c-.498 0-.988.104-1.458.311-2.119.932-3.165 3.65-2.33 6.061 1.398 4.043 6.044 6.77 7.142 7.368 1.1-.594 5.753-3.309 7.16-7.348.839-2.409-.201-5.13-2.319-6.067-1.518-.672-3.305-.203-4.42 1.132l-.409.487-.406-.489C7.327 1.59 6.248 1.06 5.136 1.06z" fill="#333"/></svg><svg fill="none" viewBox="0 0 24 24" id="fb" xmlns="http://www.w3.org/2000/svg"><path d="M12 .727C5.528.727.282 5.937.282 12.364.282 18.79 5.528 24 12 24c6.472 0 11.718-5.21 11.718-11.636C23.718 5.937 18.472.727 12 .727zm0 21.455c-5.46 0-9.887-4.396-9.887-9.818 0-5.423 4.426-9.819 9.887-9.819 5.46 0 9.887 4.396 9.887 9.819 0 5.422-4.426 9.818-9.887 9.818z" fill="#999"/><path d="M10.763 17.534v-4.731h-1.8v-1.81h1.8V9.627c0-1.572 1.072-2.438 2.658-2.438.76 0 1.426.047 1.617.069v1.667H13.91c-.862 0-1.024.362-1.024.896v1.172h2.065l-.268 1.81h-1.796v4.73h-2.125z" fill="#999"/></svg><svg fill="none" viewBox="0 0 24 24" id="gplus" xmlns="http://www.w3.org/2000/svg"><path d="M12.282.727C5.81.727.563 5.937.563 12.364.563 18.79 5.81 24 12.282 24 18.754 24 24 18.79 24 12.364 24 5.937 18.754.727 12.282.727zm0 21.455c-5.461 0-9.888-4.396-9.888-9.818 0-5.423 4.427-9.819 9.888-9.819 5.46 0 9.887 4.396 9.887 9.819 0 5.422-4.427 9.818-9.887 9.818z" fill="#999"/><path fill-rule="evenodd" clip-rule="evenodd" d="M17.49 12.26h-1.402v1.422h-.801V12.26h-1.37v-.832h1.37V9.967h.8v1.46h1.403v.833zm-5.7-4.577c.082.051.174.13.276.228a2.685 2.685 0 01.527.91c.058.198.086.43.086.698-.008.482-.11.875-.308 1.163a3.68 3.68 0 01-.308.392c-.12.121-.249.242-.384.363a2.14 2.14 0 00-.215.284.663.663 0 00-.117.388c0 .142.04.258.12.349a2.2 2.2 0 00.197.232l.441.38c.274.232.515.491.722.775.195.285.296.66.304 1.125 0 .66-.278 1.241-.835 1.75-.578.526-1.41.797-2.5.814-.911-.008-1.592-.21-2.041-.607-.454-.37-.681-.815-.681-1.332 0-.25.074-.53.222-.836.143-.31.402-.582.777-.815a3.848 3.848 0 011.328-.504c.46-.069.841-.112 1.145-.12a2.69 2.69 0 01-.251-.41.98.98 0 01-.129-.512c0-.121.017-.22.05-.302.028-.087.055-.164.079-.233a3.616 3.616 0 01-.418.026c-.693-.009-1.22-.237-1.584-.68a2.09 2.09 0 01-.57-1.453c0-.668.27-1.272.808-1.815.37-.319.754-.525 1.153-.624a5.492 5.492 0 011.11-.125h2.603l-.804.49h-.803zm-1.69 6.033c-.27.043-.546.108-.828.194-.066.026-.16.065-.279.12-.12.057-.243.139-.367.246-.12.108-.222.246-.304.41-.096.172-.143.38-.143.625 0 .474.207.87.621 1.176.394.31.932.47 1.616.479.613-.01 1.082-.151 1.405-.423.315-.271.472-.616.472-1.043 0-.344-.108-.646-.323-.9-.228-.242-.584-.543-1.07-.892a1.949 1.949 0 00-.291-.018c-.067-.008-.236 0-.51.026zm1.082-5.193a1.813 1.813 0 00-.486-.638 1.24 1.24 0 00-.707-.245c-.353.008-.646.16-.88.448a1.731 1.731 0 00-.283 1.008c0 .492.138 1 .413 1.534.134.246.306.457.516.63.211.172.453.258.723.258.343-.013.629-.142.857-.383a1.44 1.44 0 00.212-.53c.02-.186.029-.336.029-.461 0-.535-.131-1.073-.394-1.62z" fill="#999"/></svg><svg fill="none" viewBox="0 0 25 24" id="im" xmlns="http://www.w3.org/2000/svg"><path d="M12.521.727C6.05.727.803 5.937.803 12.364.803 18.79 6.049 24 12.52 24c6.472 0 11.718-5.21 11.718-11.636C24.24 5.937 18.993.727 12.521.727zm0 21.455c-5.46 0-9.887-4.396-9.887-9.818 0-5.423 4.426-9.819 9.887-9.819 5.46 0 9.887 4.396 9.887 9.819 0 5.422-4.426 9.818-9.887 9.818z" fill="#999"/><path fill-rule="evenodd" clip-rule="evenodd" d="M16.101 17.532H8.94a1.622 1.622 0 01-1.628-1.616V8.805c0-.892.73-1.616 1.628-1.616h7.161c.9 0 1.628.724 1.628 1.616v7.111c0 .892-.729 1.616-1.628 1.616zm-3.58-6.895a1.73 1.73 0 00-1.736 1.724 1.73 1.73 0 001.736 1.724 1.73 1.73 0 001.736-1.724 1.73 1.73 0 00-1.736-1.724zm3.906-1.509a.648.648 0 00-.651-.646h-.434a.648.648 0 00-.651.646v.431c0 .358.291.647.65.647h.435c.36 0 .65-.289.65-.647v-.43zm0 2.37h-1.01c.084.277.142.561.142.863a3.026 3.026 0 01-3.038 3.016 3.026 3.026 0 01-3.038-3.016c0-.302.058-.587.14-.862H8.615v4.094c0 .358.292.646.651.646h6.51c.36 0 .652-.288.652-.646v-4.094z" fill="#999"/></svg><svg fill="none" viewBox="0 0 16 16" id="lang" xmlns="http://www.w3.org/2000/svg"><path d="M8 0C5.9 0 3.8.8 2.3 2.3.8 3.8 0 5.8 0 8c0 2.1.8 4.1 2.3 5.7C3.8 15.2 5.8 16 8 16c4.4 0 8-3.6 8-8 0-2.1-.8-4.1-2.3-5.7C12.2.8 10.2 0 8 0zm5.7 3.1c-.2.3-.8 1-2 1.5-.7-2-1.8-3.3-2.5-4 1.5.2 3 1 4.1 2.1.1.1.3.2.4.4zM8.4 15.5h-.1v-4.8c1.2 0 2.2.2 3 .5-1 2.6-2.6 4.1-2.9 4.3zm-3.6-4.2c.8-.3 1.7-.5 3-.5v4.8h-.1c-.4-.3-2-1.8-2.9-4.3zM7.6.5h.1v4.8c-1.2 0-2.2-.2-3-.5 1-2.6 2.6-4 2.9-4.3zm3.6 4.3c-.8.3-1.7.5-3 .5V.5h.1c.4.3 2 1.7 2.9 4.3zm-2.9 1c1.3 0 2.3-.2 3.1-.5.2.8.4 1.6.4 2.5H8.3v-2zm-.5 0v2H4.3c0-.9.2-1.8.4-2.5.8.2 1.8.4 3.1.5zm-4 2H.5c0-1.6.6-3.1 1.5-4.3.3.4 1 1.1 2.2 1.6-.2.8-.4 1.7-.4 2.7zm0 .5c0 1 .2 1.9.4 2.7-1.2.5-1.9 1.2-2.2 1.6C1.1 11.4.5 9.9.5 8.3h3.3zm.5 0h3.5v2c-1.3 0-2.3.2-3.1.5-.3-.8-.4-1.6-.4-2.5zm4 2v-2h3.5c0 .9-.2 1.8-.4 2.5-.8-.3-1.9-.5-3.1-.5zm4-2h3.3c-.1 1.6-.6 3.1-1.5 4.3-.3-.4-1-1.1-2.2-1.6.2-.9.3-1.7.4-2.7zm0-.5c0-1-.2-1.9-.4-2.7 1.2-.5 1.9-1.2 2.2-1.6.9 1.2 1.5 2.7 1.5 4.3h-3.3zM6.8.6c-.7.7-1.8 2-2.5 4-.4-.2-.7-.3-.9-.5-.6-.4-.9-.8-1.1-1 .1-.1.2-.3.3-.4C3.8 1.6 5.3.8 6.8.6zM2.4 13c.2-.3.8-1 2-1.5.7 2 1.8 3.3 2.5 4-1.5-.2-3-1-4.1-2.1l-.4-.4zm6.8 2.4c.7-.7 1.8-2 2.5-4 .4.2.7.3.9.5.6.4.9.8 1.1 1-1.2 1.3-2.7 2.2-4.5 2.5z" fill="#333"/></svg><svg fill="none" viewBox="0 0 15 20" id="map-mark" xmlns="http://www.w3.org/2000/svg"><path d="M7.5 0C3.363 0 0 3.303 0 7.363c0 1.059.221 2.07.656 3.006 1.875 4.027 5.47 8.28 6.528 9.488a.419.419 0 00.632 0c1.057-1.207 4.652-5.46 6.527-9.488A7.065 7.065 0 0015 7.363C14.999 3.303 11.635 0 7.5 0zm0 11.187c-2.149 0-3.896-1.716-3.896-3.824 0-2.11 1.747-3.825 3.895-3.825 2.148 0 3.896 1.716 3.896 3.825 0 2.108-1.748 3.824-3.896 3.824z" fill="#828282"/></svg><svg fill="none" viewBox="0 0 19 20" id="mobile" xmlns="http://www.w3.org/2000/svg"><path d="M17.194 5.468h-3.142l-.001-4.366C14.05.492 13.555 0 12.945 0H1.105C.497 0 0 .497 0 1.106l.005 17.787c0 .61.496 1.106 1.106 1.106h10.6V20h1.24l4.243-.005c.856 0 1.553-.697 1.553-1.553l.005-11.411c0-.86-.699-1.563-1.558-1.563zm-3.443.938h1.395a.313.313 0 010 .625h-1.395a.313.313 0 010-.625zM5.922 1.25h2.213a.313.313 0 010 .625H5.922a.313.313 0 010-.625zm-1.152.096a.322.322 0 01.442 0 .31.31 0 010 .44.31.31 0 01-.442 0 .312.312 0 010-.44zm2.196 18.039a.936.936 0 010-1.87.936.936 0 010 1.87zm3.191-12.356v9.845H.94V2.97h12.187v2.5H11.71c-.855 0-1.554.704-1.554 1.56zm2.97-.295a.307.307 0 01-.093.22.31.31 0 01-.44 0 .307.307 0 010-.44.32.32 0 01.44 0c.06.057.092.137.092.22zm1.329 12.818a.87.87 0 010-1.74.87.87 0 010 1.74zm3.514-2.21h-7.031V7.969h7.03v9.375z" fill="#828282"/></svg><svg fill="none" viewBox="0 0 25 24" id="ok" xmlns="http://www.w3.org/2000/svg"><path d="M12.48.727C6.006.727.76 5.937.76 12.364.76 18.79 6.008 24 12.48 24c6.471 0 11.717-5.21 11.717-11.636C24.197 5.937 18.951.727 12.48.727zm0 21.455c-5.462 0-9.888-4.396-9.888-9.818 0-5.423 4.426-9.819 9.887-9.819 5.46 0 9.887 4.396 9.887 9.819 0 5.422-4.426 9.818-9.887 9.818z" fill="#999"/><path fill-rule="evenodd" clip-rule="evenodd" d="M11.966 14.477c-.807-.083-1.535-.28-2.159-.764-.077-.06-.157-.119-.228-.186-.272-.26-.3-.558-.084-.865.185-.263.495-.334.817-.183.062.03.122.066.179.105 1.162.793 2.757.815 3.924.036.115-.088.238-.16.382-.196.278-.071.538.03.687.272.17.276.168.546-.042.76-.322.329-.71.567-1.141.733-.408.156-.854.235-1.296.288.067.072.098.107.14.149.6.598 1.203 1.194 1.8 1.794.204.205.246.458.135.697-.123.26-.398.43-.667.412a.65.65 0 01-.422-.214c-.452-.452-.913-.896-1.357-1.357-.129-.134-.191-.109-.305.008-.455.465-.918.924-1.384 1.379-.209.205-.457.242-.7.125a.702.702 0 01-.409-.648c.009-.177.097-.313.22-.435.593-.588 1.185-1.178 1.777-1.768.04-.039.076-.08.133-.142z" fill="#999"/><path fill-rule="evenodd" clip-rule="evenodd" d="M12.458 12.428c-1.44-.005-2.622-1.191-2.613-2.624a2.63 2.63 0 012.645-2.612 2.628 2.628 0 012.62 2.652c-.007 1.43-1.196 2.588-2.652 2.584zm1.31-2.62a1.28 1.28 0 00-1.288-1.279 1.28 1.28 0 10.006 2.562 1.277 1.277 0 001.282-1.283z" fill="#999"/></svg><svg fill="none" viewBox="0 0 25 20" id="partners" xmlns="http://www.w3.org/2000/svg"><path d="M12.132 6.604a.255.255 0 00-.257.257v2.095l-1.759 1.142a.256.256 0 00-.074.356c.05.074.134.118.218.118.049 0 .098-.015.138-.04l1.734-1.126 1.735 1.127c.044.03.094.04.138.04.084 0 .168-.04.217-.12a.255.255 0 00-.074-.355l-1.754-1.142V6.861a.26.26 0 00-.262-.257zM18.966 17.287l-1.759-1.141V14.05a.255.255 0 00-.257-.257.255.255 0 00-.257.257v2.095l-1.759 1.141a.256.256 0 00-.074.356c.05.074.133.119.217.119.05 0 .1-.015.139-.04l1.734-1.127 1.734 1.127c.045.03.094.04.139.04.084 0 .168-.04.217-.119a.255.255 0 00-.074-.356zM9.33 17.287l-1.758-1.141V14.05a.255.255 0 00-.257-.257.255.255 0 00-.257.257v2.095l-1.76 1.141a.256.256 0 00-.074.356c.05.074.134.119.218.119.05 0 .099-.015.138-.04l1.735-1.127 1.734 1.127c.044.03.094.04.138.04.084 0 .168-.04.218-.119a.255.255 0 00-.074-.356zM12.78 3.54V3.31s.736.024 1.087-.336c0 0-.51-.144-.42-1.073.093-.929-.114-1.739-.86-1.675 0 0-.322-.39-.969-.143-.222.084-.815.296-.78 1.581.03 1.285-.455 1.295-.455 1.295s.252.365 1.102.355v.243l.647 1.892.647-1.887v-.02z" fill="#828282"/><path d="M14.385 4.751a.755.755 0 00-.405-.538l-.815-.4c-.05-.025-.094-.05-.138-.075l.256.761-.36-.03-.79.974-.791-.973-.361.03.262-.762-.163.084-.796.39a.743.743 0 00-.405.54l-.129.716c-.01.054.03.104.084.104h4.596c.054 0 .094-.05.084-.104l-.129-.717zM17.642 10.77v-.232s.736.024 1.087-.336c0 0-.509-.144-.42-1.073.094-.929-.114-1.739-.86-1.675 0 0-.321-.39-.968-.143-.223.084-.816.296-.781 1.581.03 1.285-.455 1.295-.455 1.295s.252.365 1.102.356v.242l.648 1.892.647-1.887v-.02z" fill="#828282"/><path d="M19.247 11.98a.755.755 0 00-.405-.538l-.815-.4a3.474 3.474 0 01-.138-.075l.256.761-.36-.03-.79.974-.791-.973-.361.03.262-.762-.163.084-.796.39a.755.755 0 00-.405.54l-.128.716c-.01.054.03.104.084.104h4.595c.054 0 .094-.05.084-.104l-.129-.717zM7.917 10.77v-.232s.737.024 1.087-.336c0 0-.509-.144-.42-1.073.094-.929-.113-1.739-.86-1.675 0 0-.32-.39-.968-.143-.222.084-.815.296-.78 1.581.03 1.285-.455 1.295-.455 1.295s.252.365 1.102.356v.242l.647 1.892.647-1.887v-.02z" fill="#828282"/><path d="M9.523 11.98a.755.755 0 00-.405-.538l-.815-.4a3.52 3.52 0 01-.139-.075l.257.761-.36-.03-.79.974-.792-.973-.36.03.262-.762-.163.084-.796.39a.743.743 0 00-.405.54l-.129.716c-.01.054.03.104.084.104h4.596c.054 0 .094-.05.084-.104l-.129-.717zM22.46 17.964v-.232s.736.025 1.087-.336c0 0-.51-.143-.42-1.072.094-.93-.114-1.74-.86-1.675 0 0-.321-.39-.969-.144-.222.084-.815.297-.78 1.582.03 1.284-.455 1.294-.455 1.294s.252.366 1.102.356v.242l.647 1.893.648-1.888v-.02z" fill="#828282"/><path d="M24.199 19.896l-.129-.716a.756.756 0 00-.405-.539l-.815-.4a3.42 3.42 0 01-.139-.074l.258.76-.361-.029-.79.974-.791-.974-.361.03.262-.761-.163.084-.796.39a.743.743 0 00-.405.539l-.128.716c-.01.055.03.104.084.104h4.59c.054-.005.099-.054.089-.104zM12.735 17.964v-.232s.736.025 1.087-.336c0 0-.509-.143-.42-1.072.094-.93-.113-1.74-.86-1.675 0 0-.32-.39-.968-.144-.223.084-.816.297-.78 1.582.029 1.284-.456 1.294-.456 1.294s.253.366 1.102.356v.242l.648 1.893.647-1.888v-.02z" fill="#828282"/><path d="M14.341 19.175a.756.756 0 00-.405-.539l-.816-.4c-.049-.025-.093-.05-.138-.074l.257.76-.36-.029-.791.974-.79-.974-.361.03.261-.761-.163.084-.795.39a.756.756 0 00-.405.539l-.129.716c-.01.055.03.104.084.104h4.595c.055 0 .094-.05.084-.104l-.128-.716zM3.026 17.964v-.232s.736.025 1.087-.336c0 0-.51-.143-.42-1.072.094-.93-.114-1.74-.86-1.675 0 0-.321-.39-.969-.144-.222.084-.815.297-.78 1.582.03 1.284-.455 1.294-.455 1.294s.252.366 1.102.356v.242l.647 1.893.648-1.888v-.02z" fill="#828282"/><path d="M4.636 19.175a.756.756 0 00-.405-.539l-.815-.4c-.05-.025-.094-.05-.138-.074l.256.76-.36-.029-.79.974-.791-.974-.361.03.262-.761-.163.084-.796.39a.756.756 0 00-.405.539l-.128.716c-.01.055.03.104.084.104H4.68c.054 0 .094-.05.084-.104l-.129-.716z" fill="#828282"/></svg><svg fill="none" viewBox="0 0 16 16" id="search" xmlns="http://www.w3.org/2000/svg"><path fill-rule="evenodd" clip-rule="evenodd" d="M15.7 15.7c-.4.4-1 .4-1.4 0l-3.1-3.1C10 13.5 8.6 14 7 14c-3.9 0-7-3.1-7-7s3.1-7 7-7 7 3.1 7 7c0 1.6-.5 3-1.4 4.2l3.1 3.1c.4.4.4 1 0 1.4zM7 2C4.2 2 2 4.2 2 7s2.2 5 5 5 5-2.2 5-5-2.2-5-5-5z" fill="#333"/></svg><svg fill="none" viewBox="0 0 16 16" id="signin" xmlns="http://www.w3.org/2000/svg"><path d="M14.869 11.502c-.473-.473-1.263-.885-2.508-1.508-.629-.314-1.674-.836-1.927-1.076 1.061-1.304 1.677-2.777 1.677-4.066 0-.875 0-1.964-.49-2.935C11.18 1.042 10.193 0 8.001 0 5.806 0 4.82 1.042 4.378 1.916c-.49.972-.49 2.06-.49 2.935 0 1.29.615 2.763 1.677 4.067-.254.24-1.299.763-1.927 1.076-1.245.623-2.036 1.035-2.508 1.507C.085 12.548.006 14.305 0 14.646A1.334 1.334 0 001.332 16h13.333A1.334 1.334 0 0016 14.646c-.005-.341-.085-2.098-1.131-3.145zm.035 3.398a.333.333 0 01-.238.1H1.333A.333.333 0 011 14.662c.003-.168.049-1.664.838-2.453.364-.364 1.127-.76 2.248-1.32 1.197-.598 1.861-.955 2.167-1.244l.675-.638-.586-.72c-.923-1.134-1.453-2.386-1.453-3.435 0-.81 0-1.726.383-2.485C5.73 1.46 6.647 1 8 1c1.352 0 2.27.46 2.728 1.367.383.759.383 1.675.383 2.485 0 1.048-.53 2.3-1.453 3.435l-.586.72.675.638c.305.289.969.645 2.166 1.244 1.121.56 1.884.955 2.248 1.32.643.642.83 1.844.838 2.453a.333.333 0 01-.095.238z" fill="#333"/></svg><svg fill="none" viewBox="0 0 17 16" id="star" xmlns="http://www.w3.org/2000/svg"><path d="M15.678 5l-4.1-.3c-.1 0-.2-.1-.2-.1L9.779.8c-.2-.5-.7-.8-1.3-.8-.6 0-1.1.3-1.3.9l-1.6 3.8c0 .1-.1.1-.2.1l-4.1.3c-.6 0-1 .4-1.2.9-.2.5 0 1.1.4 1.5l3.2 2.6c.1.1.1.1.1.2l-1 4c-.1.4 0 .8.2 1.2.3.3.7.5 1.1.5.3 0 .5-.1.7-.2l3.5-2.2h.2l3.5 2.1c.2.1.5.2.7.2.4 0 .8-.2 1-.5.3-.3.4-.8.3-1.2l-1-4c0-.1 0-.2.1-.2l3.2-2.6c.4-.4.6-.9.4-1.5 0-.5-.4-.9-1-.9zm.3 1.7l-3.2 2.6c-.3.3-.5.7-.4 1.1l1 4c.1.2 0 .4-.1.5-.1.1-.2.2-.4.2-.1 0-.2 0-.3-.1l-3.5-2.2c-.2-.1-.4-.2-.6-.2-.2 0-.4.1-.6.2l-3.5 2.2c-.2.1-.5.1-.7-.1-.1-.1-.1-.2-.1-.4l1-4c.1-.4 0-.8-.4-1.1l-3.2-2.6c-.2-.2-.2-.5-.2-.6 0-.1.1-.3.5-.4l4.1-.3c.4 0 .8-.3.9-.7l1.6-3.8c.1-.3.4-.3.5-.3.1 0 .4 0 .5.3l1.6 3.8c.2.4.5.6.9.7l4.1.3c.3 0 .4.3.5.4.2.1.2.3 0 .5z" fill="#FFAD00"/></svg><svg fill="none" viewBox="0 0 16 17" id="sun" xmlns="http://www.w3.org/2000/svg"><path d="M8 12c2.1 0 3.9-1.7 3.9-3.9 0-2.1-1.7-3.9-3.9-3.9-2.1 0-3.9 1.7-3.9 3.9C4.1 10.2 5.9 12 8 12zm0-6.6c1.5 0 2.7 1.2 2.7 2.7 0 1.5-1.2 2.7-2.7 2.7-1.5 0-2.7-1.2-2.7-2.7 0-1.5 1.2-2.7 2.7-2.7zM8.6 2.4V.6C8.6.3 8.4 0 8 0c-.4 0-.6.2-.6.6v1.8c0 .3.2.6.6.6.4 0 .6-.2.6-.6zM7.4 13.8v1.8c0 .3.2.6.6.6.4 0 .6-.2.6-.6v-1.8c0-.3-.2-.6-.6-.6-.4 0-.6.2-.6.6zM12.4 4.5l1.3-1.3c.2-.2.2-.6 0-.8-.2-.2-.6-.2-.8 0l-1.3 1.3c-.2.2-.2.6 0 .8.1.1.2.2.4.2s.3-.1.4-.2zM2.3 13.8c.1.1.2.2.4.2.1 0 .3-.1.4-.2l1.3-1.3c.2-.2.2-.6 0-.8-.2-.2-.6-.2-.8 0L2.3 13c-.2.2-.2.5 0 .8zM16 8.1c0-.3-.2-.6-.6-.6h-1.8c-.3 0-.6.2-.6.6 0 .4.2.6.6.6h1.8c.3 0 .6-.3.6-.6zM.6 8.7h1.8c.3 0 .6-.2.6-.6 0-.4-.2-.6-.6-.6H.6c-.3 0-.6.2-.6.6 0 .4.3.6.6.6zM13.3 13.9c.1 0 .3-.1.4-.2.2-.2.2-.6 0-.8l-1.3-1.3c-.2-.2-.6-.2-.8 0-.2.2-.2.6 0 .8l1.3 1.3c.1.2.2.2.4.2zM4.4 4.5c.2-.2.2-.6 0-.8L3.1 2.4c-.2-.2-.6-.2-.8 0-.2.2-.2.6 0 .8l1.3 1.3c.1.1.2.2.4.2s.3-.1.4-.2z" fill="#FFAD00"/></svg><svg fill="none" viewBox="0 0 24 24" id="tw" xmlns="http://www.w3.org/2000/svg"><path d="M11.76.727C5.288.727.042 5.937.042 12.364.042 18.79 5.288 24 11.76 24c6.472 0 11.719-5.21 11.719-11.636C23.479 5.937 18.232.727 11.76.727zm0 21.455c-5.46 0-9.887-4.396-9.887-9.818 0-5.423 4.427-9.819 9.887-9.819 5.461 0 9.888 4.396 9.888 9.819 0 5.422-4.427 9.818-9.888 9.818z" fill="#999"/><path fill-rule="evenodd" clip-rule="evenodd" d="M15.903 10.195c.003.095.005.19.005.284 0 2.877-2.15 6.198-6.08 6.198a5.976 5.976 0 01-3.276-.98 4.227 4.227 0 003.164-.906c-.935-.012-1.725-.646-1.997-1.509a2.071 2.071 0 00.966-.038 2.166 2.166 0 01-1.715-2.135v-.026c.288.16.618.259.969.272a2.196 2.196 0 01-.952-1.816c0-.397.105-.772.29-1.095a6.024 6.024 0 004.405 2.277 2.242 2.242 0 01-.055-.496c0-1.203.957-2.178 2.137-2.178.615 0 1.17.263 1.56.686a4.151 4.151 0 001.357-.527c-.16.51-.498.936-.94 1.204a4.195 4.195 0 001.227-.341c-.287.436-.648.82-1.065 1.126z" fill="#999"/></svg><svg fill="none" viewBox="0 0 24 24" id="vk" xmlns="http://www.w3.org/2000/svg"><path d="M11.718.727C5.246.727 0 5.937 0 12.364 0 18.79 5.246 24 11.718 24c6.472 0 11.719-5.21 11.719-11.636C23.437 5.937 18.19.727 11.718.727zm0 21.455c-5.46 0-9.887-4.396-9.887-9.818 0-5.423 4.427-9.819 9.887-9.819 5.461 0 9.888 4.396 9.888 9.819 0 5.422-4.427 9.818-9.888 9.818z" fill="#999"/><path d="M16.872 14.743a.718.718 0 00-.036-.067c-.18-.323-.526-.72-1.036-1.19l-.01-.011-.006-.005-.005-.006h-.005a6.34 6.34 0 01-.44-.441c-.112-.144-.137-.29-.076-.437.044-.111.206-.346.488-.705.148-.19.266-.343.353-.458.625-.826.896-1.354.813-1.583l-.032-.054c-.022-.032-.078-.062-.168-.089a.853.853 0 00-.347-.013l-1.562.01a.204.204 0 00-.109.003l-.07.016-.027.014-.022.016a.236.236 0 00-.06.056.369.369 0 00-.054.095c-.17.434-.363.838-.58 1.211-.134.223-.257.416-.369.58a2.81 2.81 0 01-.282.36c-.076.077-.145.14-.206.186-.062.047-.108.066-.141.06l-.092-.022a.355.355 0 01-.122-.132.583.583 0 01-.063-.21 2.394 2.394 0 01-.016-.477c.004-.111.006-.187.006-.226 0-.137.002-.285.008-.445l.013-.38c.004-.092.006-.191.006-.295a1.23 1.23 0 00-.02-.245.825.825 0 00-.056-.173.29.29 0 00-.112-.129.624.624 0 00-.181-.073 3.66 3.66 0 00-.732-.07c-.673-.007-1.105.036-1.296.13a.727.727 0 00-.207.16c-.064.08-.074.123-.027.13.217.033.37.11.461.232l.033.065c.025.046.05.129.076.247.025.119.041.25.048.393a4.13 4.13 0 010 .674 7.812 7.812 0 01-.051.436.87.87 0 01-.138.371.094.094 0 01-.027.027.405.405 0 01-.147.027.346.346 0 01-.184-.075 1.297 1.297 0 01-.225-.208 2.77 2.77 0 01-.263-.369 6.445 6.445 0 01-.304-.56l-.087-.156c-.054-.1-.128-.246-.222-.439a8.332 8.332 0 01-.25-.557.358.358 0 00-.13-.173l-.027-.016a.582.582 0 00-.212-.08l-1.485.01c-.152 0-.255.034-.31.103l-.021.032a.175.175 0 00-.017.086c0 .04.011.088.033.146.217.506.453.994.708 1.464.255.47.476.85.664 1.137.188.287.38.558.575.813.195.255.325.418.388.49.063.072.113.126.149.162l.135.129c.087.086.215.19.383.31s.354.238.558.355c.205.117.442.212.714.285.27.074.535.104.792.09h.623a.433.433 0 00.288-.12l.021-.026a.542.542 0 00.06-.248 1.776 1.776 0 01.035-.417c.027-.124.058-.217.092-.28a.678.678 0 01.21-.237.372.372 0 01.042-.02c.087-.028.19 0 .307.085.117.084.227.188.33.312.104.124.228.263.372.417.145.155.271.27.38.345l.108.065c.073.043.167.082.282.118a.607.607 0 00.304.027l1.388-.021a.632.632 0 00.32-.068c.076-.045.121-.094.136-.148a.414.414 0 00.003-.183.69.69 0 00-.038-.143z" fill="#999"/></svg><svg fill="none" viewBox="0 0 24 24" id="yt" xmlns="http://www.w3.org/2000/svg"><path d="M12.24 0C5.766 0 .52 5.21.52 11.636c0 6.427 5.246 11.637 11.718 11.637 6.472 0 11.719-5.21 11.719-11.636C23.958 5.21 18.71 0 12.239 0zm0 21.455c-5.461 0-9.888-4.396-9.888-9.818 0-5.423 4.427-9.819 9.887-9.819 5.461 0 9.888 4.396 9.888 9.819 0 5.422-4.427 9.818-9.888 9.818z" fill="#999"/><path fill-rule="evenodd" clip-rule="evenodd" d="M10.356 5.818l-.464 1.795h-.047l-.488-1.795H8.6l.962 2.977v1.253h.552V8.713l1.008-2.895h-.765zm2.406 1.957c0-.254-.083-.502-.23-.648-.168-.168-.252-.265-.529-.265-.304 0-.389.114-.569.265-.18.153-.26.372-.26.627v1.39c0 .282.09.506.264.674.175.165.26.247.55.247.303 0 .342-.08.517-.24.172-.16.257-.383.257-.667V7.775zm2.13-.91h-.534v2.12c-.063.072-.342.447-.392.447-.061 0-.073-.017-.102-.052-.028-.035-.042-.091-.042-.17V6.865h-.535v2.573c0 .2.017.49.124.598.073.073.303.087.513-.072.161-.122.293-.291.434-.545v.564h.534V6.865zm3.207 6.403c0-1.2-.957-2.173-2.14-2.173H8.52c-1.182 0-2.14.973-2.14 2.173v2.014c0 1.198.958 2.173 2.14 2.173h7.438c1.183 0 2.14-.975 2.14-2.173v-2.014zM15.15 16.39c-.245 0-.435-.076-.575-.231-.14-.15-.21-.36-.21-.628v-1.25c0-.24.078-.681.23-.83a.8.8 0 01.593-.229c.25 0 .441.07.572.208.136.144.202.59.202.851v.528h-1.039v.704c0 .148.02.248.055.305.037.056.095.085.185.085.088 0 .15-.024.186-.072.035-.048.055-.151.055-.318v-.126h.558v.144c0 .286-.066.5-.204.644-.137.142-.34.215-.608.215zm.254-2.014v-.098c0-.117-.02-.446-.057-.495-.035-.05-.098-.076-.181-.076-.085 0-.148.026-.186.076-.037.05-.057.378-.057.495v.098h.48zm-2.075 2.021a.641.641 0 01-.294-.066.723.723 0 01-.238-.196v.222h-.563V12.16h.53v1.27c.077-.089.19-.157.27-.203a.544.544 0 01.26-.07c.176 0 .313.065.405.188.092.124.139.305.139.543v1.872c0 .206-.044.362-.13.472a.464.464 0 01-.38.166zm-.016-2.48c0-.097-.07-.17-.107-.222a.215.215 0 00-.175-.074.268.268 0 00-.119.028c-.037.018-.109.048-.148.088v2.069a.592.592 0 00.168.102.281.281 0 00.133.033c.068 0 .119-.022.151-.064.03-.039.097-.106.097-.199v-1.76zm-2.167 2.093c-.103.113-.21.238-.322.298a.637.637 0 01-.324.092c-.128 0-.226-.042-.29-.129a.626.626 0 01-.115-.385v-2.657h.54v2.46c0 .068.012.117.035.148.024.029.062.045.114.045.04 0 .126-.02.19-.062.062-.039.153-.091.205-.151v-2.44h.526v3.162h-.559v-.381zm-1.57.378h-.537v-3.7h-.524v-.529h1.601v.528h-.54v3.702zm2.395-6.897c-.089 0-.158-.024-.203-.074-.05-.05-.073-.12-.073-.211V7.73c0-.074.027-.132.077-.176a.287.287 0 01.199-.068.24.24 0 01.18.068.217.217 0 01.083.176v1.475c0 .09-.028.159-.08.21-.056.05-.092.075-.183.075z" fill="#999"/></svg></svg>